<mxfile host="app.diagrams.net" modified="2023-08-21T03:13:25.957Z" agent="Mozilla/5.0 (Macintosh; Intel Mac OS X 10_15_7) AppleWebKit/537.36 (KHTML, like Gecko) Chrome/115.0.0.0 Safari/537.36" etag="PjeXPVEFr7g4GMb4car5" version="21.6.8" type="github">
  <diagram name="第 1 页" id="MVq0HJqW8OKJKkVGIS6s">
    <mxGraphModel dx="1546" dy="830" grid="1" gridSize="10" guides="1" tooltips="1" connect="1" arrows="1" fold="1" page="1" pageScale="1" pageWidth="827" pageHeight="1169" math="0" shadow="0">
      <root>
        <mxCell id="0" />
        <mxCell id="1" parent="0" />
        <mxCell id="O0BUMRziyIJYBRGt5fqe-1" value="" style="endArrow=classic;html=1;rounded=0;" edge="1" parent="1">
          <mxGeometry width="50" height="50" relative="1" as="geometry">
            <mxPoint x="110" y="200" as="sourcePoint" />
            <mxPoint x="620" y="200" as="targetPoint" />
          </mxGeometry>
        </mxCell>
        <mxCell id="O0BUMRziyIJYBRGt5fqe-5" value="1000" style="edgeLabel;html=1;align=center;verticalAlign=middle;resizable=0;points=[];" vertex="1" connectable="0" parent="O0BUMRziyIJYBRGt5fqe-1">
          <mxGeometry x="-0.651" relative="1" as="geometry">
            <mxPoint as="offset" />
          </mxGeometry>
        </mxCell>
        <mxCell id="O0BUMRziyIJYBRGt5fqe-6" value="2000" style="edgeLabel;html=1;align=center;verticalAlign=middle;resizable=0;points=[];" vertex="1" connectable="0" parent="O0BUMRziyIJYBRGt5fqe-1">
          <mxGeometry x="-0.3451" y="1" relative="1" as="geometry">
            <mxPoint as="offset" />
          </mxGeometry>
        </mxCell>
        <mxCell id="O0BUMRziyIJYBRGt5fqe-7" value="1500" style="edgeLabel;html=1;align=center;verticalAlign=middle;resizable=0;points=[];" vertex="1" connectable="0" parent="O0BUMRziyIJYBRGt5fqe-1">
          <mxGeometry x="-0.5059" relative="1" as="geometry">
            <mxPoint as="offset" />
          </mxGeometry>
        </mxCell>
        <mxCell id="O0BUMRziyIJYBRGt5fqe-16" value="6000" style="edgeLabel;html=1;align=center;verticalAlign=middle;resizable=0;points=[];" vertex="1" connectable="0" parent="O0BUMRziyIJYBRGt5fqe-1">
          <mxGeometry x="0.2706" y="-1" relative="1" as="geometry">
            <mxPoint as="offset" />
          </mxGeometry>
        </mxCell>
        <mxCell id="O0BUMRziyIJYBRGt5fqe-17" value="3000" style="edgeLabel;html=1;align=center;verticalAlign=middle;resizable=0;points=[];" vertex="1" connectable="0" parent="O0BUMRziyIJYBRGt5fqe-1">
          <mxGeometry x="-0.1255" y="1" relative="1" as="geometry">
            <mxPoint as="offset" />
          </mxGeometry>
        </mxCell>
        <mxCell id="O0BUMRziyIJYBRGt5fqe-20" value="3050" style="edgeLabel;html=1;align=center;verticalAlign=middle;resizable=0;points=[];" vertex="1" connectable="0" parent="O0BUMRziyIJYBRGt5fqe-1">
          <mxGeometry x="0.0863" relative="1" as="geometry">
            <mxPoint as="offset" />
          </mxGeometry>
        </mxCell>
        <mxCell id="O0BUMRziyIJYBRGt5fqe-22" value="10000" style="edgeLabel;html=1;align=center;verticalAlign=middle;resizable=0;points=[];" vertex="1" connectable="0" parent="O0BUMRziyIJYBRGt5fqe-1">
          <mxGeometry x="0.6157" y="2" relative="1" as="geometry">
            <mxPoint as="offset" />
          </mxGeometry>
        </mxCell>
        <mxCell id="O0BUMRziyIJYBRGt5fqe-2" value="" style="endArrow=classic;html=1;rounded=0;" edge="1" parent="1">
          <mxGeometry width="50" height="50" relative="1" as="geometry">
            <mxPoint x="110" y="280" as="sourcePoint" />
            <mxPoint x="620" y="280" as="targetPoint" />
          </mxGeometry>
        </mxCell>
        <mxCell id="O0BUMRziyIJYBRGt5fqe-8" value="1000" style="edgeLabel;html=1;align=center;verticalAlign=middle;resizable=0;points=[];" vertex="1" connectable="0" parent="O0BUMRziyIJYBRGt5fqe-2">
          <mxGeometry x="-0.6863" y="2" relative="1" as="geometry">
            <mxPoint as="offset" />
          </mxGeometry>
        </mxCell>
        <mxCell id="O0BUMRziyIJYBRGt5fqe-9" value="2000" style="edgeLabel;html=1;align=center;verticalAlign=middle;resizable=0;points=[];" vertex="1" connectable="0" parent="O0BUMRziyIJYBRGt5fqe-2">
          <mxGeometry x="-0.3804" y="1" relative="1" as="geometry">
            <mxPoint as="offset" />
          </mxGeometry>
        </mxCell>
        <mxCell id="O0BUMRziyIJYBRGt5fqe-11" value="1500" style="edgeLabel;html=1;align=center;verticalAlign=middle;resizable=0;points=[];" vertex="1" connectable="0" parent="O0BUMRziyIJYBRGt5fqe-2">
          <mxGeometry x="-0.5608" y="3" relative="1" as="geometry">
            <mxPoint as="offset" />
          </mxGeometry>
        </mxCell>
        <mxCell id="O0BUMRziyIJYBRGt5fqe-18" value="3000" style="edgeLabel;html=1;align=center;verticalAlign=middle;resizable=0;points=[];" vertex="1" connectable="0" parent="O0BUMRziyIJYBRGt5fqe-2">
          <mxGeometry x="-0.1647" y="-1" relative="1" as="geometry">
            <mxPoint as="offset" />
          </mxGeometry>
        </mxCell>
        <mxCell id="O0BUMRziyIJYBRGt5fqe-3" value="bsc" style="ellipse;whiteSpace=wrap;html=1;rotation=-90;" vertex="1" parent="1">
          <mxGeometry x="720" y="200" width="120" height="80" as="geometry" />
        </mxCell>
        <mxCell id="O0BUMRziyIJYBRGt5fqe-4" value="3S&amp;nbsp; &amp;nbsp; &amp;nbsp;50" style="whiteSpace=wrap;html=1;" vertex="1" parent="1">
          <mxGeometry x="707" y="110" width="120" height="60" as="geometry" />
        </mxCell>
        <mxCell id="O0BUMRziyIJYBRGt5fqe-10" value="" style="endArrow=classic;html=1;rounded=0;" edge="1" parent="1">
          <mxGeometry width="50" height="50" relative="1" as="geometry">
            <mxPoint x="120" y="400" as="sourcePoint" />
            <mxPoint x="640" y="400" as="targetPoint" />
          </mxGeometry>
        </mxCell>
        <mxCell id="O0BUMRziyIJYBRGt5fqe-12" value="1000" style="edgeLabel;html=1;align=center;verticalAlign=middle;resizable=0;points=[];" vertex="1" connectable="0" parent="O0BUMRziyIJYBRGt5fqe-10">
          <mxGeometry x="-0.7615" relative="1" as="geometry">
            <mxPoint as="offset" />
          </mxGeometry>
        </mxCell>
        <mxCell id="O0BUMRziyIJYBRGt5fqe-13" value="2000" style="edgeLabel;html=1;align=center;verticalAlign=middle;resizable=0;points=[];" vertex="1" connectable="0" parent="O0BUMRziyIJYBRGt5fqe-10">
          <mxGeometry x="-0.4577" y="-2" relative="1" as="geometry">
            <mxPoint as="offset" />
          </mxGeometry>
        </mxCell>
        <mxCell id="O0BUMRziyIJYBRGt5fqe-14" value="3000" style="edgeLabel;html=1;align=center;verticalAlign=middle;resizable=0;points=[];" vertex="1" connectable="0" parent="O0BUMRziyIJYBRGt5fqe-10">
          <mxGeometry x="-0.1731" relative="1" as="geometry">
            <mxPoint as="offset" />
          </mxGeometry>
        </mxCell>
        <mxCell id="O0BUMRziyIJYBRGt5fqe-15" value="Text" style="edgeLabel;html=1;align=center;verticalAlign=middle;resizable=0;points=[];" vertex="1" connectable="0" parent="O0BUMRziyIJYBRGt5fqe-10">
          <mxGeometry x="0.1077" y="-1" relative="1" as="geometry">
            <mxPoint as="offset" />
          </mxGeometry>
        </mxCell>
        <mxCell id="O0BUMRziyIJYBRGt5fqe-19" value="Text" style="edgeLabel;html=1;align=center;verticalAlign=middle;resizable=0;points=[];" vertex="1" connectable="0" parent="O0BUMRziyIJYBRGt5fqe-10">
          <mxGeometry x="-0.3115" y="2" relative="1" as="geometry">
            <mxPoint as="offset" />
          </mxGeometry>
        </mxCell>
      </root>
    </mxGraphModel>
  </diagram>
</mxfile>
